# Blender 3.4.1
# www.blender.org
mtllib Lambo_Right_Light.mtl
o Lamborghini_Right_Light
v -0.607831 0.647962 2.301853
v -0.716784 0.583429 2.353297
v -0.877092 0.696613 2.082959
v -0.852507 0.633405 2.202353
v -0.700485 0.653309 2.244965
v -0.682059 0.693815 2.178117
v -0.617908 0.675288 2.237180
v -0.900222 0.748883 1.969260
v -0.831921 0.585994 2.273419
vn -0.2288 0.8512 0.4724
vn -0.2437 0.8399 0.4850
vn -0.2850 0.8049 0.5205
vn -0.2056 0.8691 0.4499
vn -0.1920 0.8771 0.4402
vn -0.2078 0.8678 0.4514
vn -0.2126 0.8640 0.4564
vn -0.2694 0.8171 0.5096
vn -0.2938 0.7968 0.5280
vt 0.071925 0.475976
vt 0.060565 0.492650
vt 0.103602 0.517927
vt 0.083580 0.513632
vt 0.079698 0.490141
vt 0.091209 0.487351
vt 0.082231 0.477593
vt 0.122165 0.521164
vt 0.070903 0.510690
s 1
usemtl Lamborghini_Aventador:GlassSG
f 1/1/1 5/5/2 2/2/3
f 6/6/4 5/5/2 1/1/1 7/7/5
f 5/5/2 6/6/4 8/8/6 3/3/7
f 5/5/2 3/3/7 4/4/8
f 2/2/3 5/5/2 4/4/8 9/9/9
